<svg aria-hidden="true" xmlns="http://www.w3.org/2000/svg" xmlns:xlink="http://www.w3.org/1999/xlink"><symbol viewBox="0 0 16 16" fill="none" id="coin" xmlns="http://www.w3.org/2000/svg">
<path d="M8 12.6347C5.32852 12.6347 2.96602 11.9839 1.47578 10.9785C1.17227 11.3109 1 11.6681 1 12.0448C1 13.676 4.13359 14.9998 8 14.9998C11.8664 14.9998 15 13.676 15 12.0448C15 11.6681 14.8277 11.3109 14.5242 10.9813C13.034 11.9839 10.6715 12.6347 8 12.6347ZM8 9.08975C5.32852 9.08975 2.96602 8.43892 1.47578 7.43359C1.17227 7.76593 1 8.1232 1 8.49985C1 10.1311 4.13359 11.4549 8 11.4549C11.8664 11.4549 15 10.1311 15 8.49985C15 8.1232 14.8277 7.76593 14.5242 7.43636C13.034 8.43892 10.6715 9.08975 8 9.08975Z" fill="#BEC3D4"/>
<path d="M8 7.9101C11.8664 7.9101 15 6.58628 15 4.95505C15 3.32382 11.8664 2 8 2C4.13359 2 1 3.32382 1 4.95505C1 6.58628 4.13359 7.9101 8 7.9101Z" fill="#747B98"/>
</symbol><symbol viewBox="0 0 24 24" fill="none" id="h-menu" xmlns="http://www.w3.org/2000/svg">
<g id="bh-menu">
<path id="bVector" d="M19.9995 14C19.7332 14.006 19.4683 13.9588 19.2205 13.861C18.9726 13.7633 18.7468 13.617 18.5563 13.4308C18.3658 13.2446 18.2144 13.0222 18.111 12.7766C18.0076 12.5311 17.9543 12.2674 17.9543 12.001C17.9542 11.7346 18.0074 11.4708 18.1106 11.2253C18.2139 10.9797 18.3652 10.7572 18.5556 10.5709C18.746 10.3846 18.9718 10.2382 19.2195 10.1403C19.4673 10.0425 19.7321 9.99509 19.9985 10.001C20.5211 10.0125 21.0183 10.2282 21.3839 10.6018C21.7494 10.9754 21.9541 11.4773 21.9543 12C21.9544 12.5227 21.7499 13.0246 21.3846 13.3984C21.0192 13.7722 20.522 13.9882 19.9995 14ZM5.99949 12C6.00551 12.2663 5.95826 12.5312 5.86052 12.779C5.76277 13.0268 5.6165 13.2526 5.43029 13.4432C5.24407 13.6337 5.02167 13.7851 4.77614 13.8885C4.53062 13.9918 4.26691 14.0451 4.0005 14.0452C3.73409 14.0453 3.47036 13.9921 3.22478 13.8888C2.9792 13.7856 2.75672 13.6343 2.57041 13.4439C2.38411 13.2534 2.23772 13.0277 2.13985 12.7799C2.04198 12.5322 1.9946 12.2673 2.00049 12.001C2.01204 11.4784 2.22771 10.9811 2.60133 10.6156C2.97494 10.2501 3.47681 10.0453 3.9995 10.0452C4.52219 10.0451 5.02416 10.2496 5.39796 10.6149C5.77175 10.9803 5.98767 11.4774 5.99949 12ZM13.9995 12C14.0055 12.2663 13.9583 12.5312 13.8605 12.779C13.7628 13.0268 13.6165 13.2526 13.4303 13.4432C13.2441 13.6337 13.0217 13.7851 12.7761 13.8885C12.5306 13.9918 12.2669 14.0451 12.0005 14.0452C11.7341 14.0453 11.4704 13.9921 11.2248 13.8888C10.9792 13.7856 10.7567 13.6343 10.5704 13.4439C10.3841 13.2534 10.2377 13.0277 10.1398 12.7799C10.042 12.5322 9.9946 12.2673 10.0005 12.001C10.012 11.4784 10.2277 10.9811 10.6013 10.6156C10.9749 10.2501 11.4768 10.0453 11.9995 10.0452C12.5222 10.0451 13.0242 10.2496 13.398 10.6149C13.7718 10.9803 13.9877 11.4774 13.9995 12Z" fill="black"/>
</g>
</symbol><symbol viewBox="0 0 16 16" fill="none" id="maki_cross" xmlns="http://www.w3.org/2000/svg">
<g id="cmaki:cross">
<path id="cVector" d="M4.25692 2.9283L7.99984 6.67106L11.7234 2.9477C11.8056 2.86016 11.9047 2.79013 12.0147 2.74181C12.1246 2.69349 12.2432 2.66788 12.3633 2.6665C12.6205 2.6665 12.8672 2.76866 13.049 2.9505C13.2309 3.13234 13.333 3.37897 13.333 3.63613C13.3353 3.75501 13.3132 3.8731 13.2682 3.98314C13.2232 4.09319 13.1561 4.19288 13.0712 4.27609L9.29919 7.99945L13.0712 11.7713C13.231 11.9276 13.3247 12.1394 13.333 12.3628C13.333 12.6199 13.2309 12.8666 13.049 13.0484C12.8672 13.2302 12.6205 13.3324 12.3633 13.3324C12.2398 13.3375 12.1165 13.3169 12.0013 13.2718C11.8861 13.2268 11.7816 13.1582 11.6943 13.0706L7.99984 9.32784L4.26661 13.0609C4.18468 13.1455 4.0868 13.2131 3.97862 13.2597C3.87045 13.3063 3.75411 13.331 3.63633 13.3324C3.37916 13.3324 3.13252 13.2302 2.95067 13.0484C2.76882 12.8666 2.66666 12.6199 2.66666 12.3628C2.6644 12.2439 2.68646 12.1258 2.73148 12.0158C2.7765 11.9057 2.84354 11.806 2.92847 11.7228L6.70048 7.99945L2.92847 4.2276C2.76866 4.07126 2.67494 3.85955 2.66666 3.63613C2.66666 3.37897 2.76882 3.13234 2.95067 2.9505C3.13252 2.76866 3.37916 2.6665 3.63633 2.6665C3.86905 2.66941 4.09207 2.76347 4.25692 2.9283Z" fill="#F6B127"/>
</g>
</symbol><symbol viewBox="0 0 24 24" fill="none" id="minus" xmlns="http://www.w3.org/2000/svg">
<g id="dminus">
<path id="dVector" d="M18 12.998H6C5.73478 12.998 5.48043 12.8927 5.29289 12.7052C5.10536 12.5176 5 12.2633 5 11.998C5 11.7328 5.10536 11.4785 5.29289 11.2909C5.48043 11.1034 5.73478 10.998 6 10.998H18C18.2652 10.998 18.5196 11.1034 18.7071 11.2909C18.8946 11.4785 19 11.7328 19 11.998C19 12.2633 18.8946 12.5176 18.7071 12.7052C18.5196 12.8927 18.2652 12.998 18 12.998Z" fill="black"/>
</g>
</symbol><symbol viewBox="0 0 16 16" fill="none" id="octicon_no-entry-16" xmlns="http://www.w3.org/2000/svg">
<g id="eocticon:no-entry-16" clip-path="url(#eclip0_216_28112)">
<path id="eVector" d="M4.25 7.25C4.05109 7.25 3.86032 7.32902 3.71967 7.46967C3.57902 7.61032 3.5 7.80109 3.5 8C3.5 8.19891 3.57902 8.38968 3.71967 8.53033C3.86032 8.67098 4.05109 8.75 4.25 8.75H11.75C11.9489 8.75 12.1397 8.67098 12.2803 8.53033C12.421 8.38968 12.5 8.19891 12.5 8C12.5 7.80109 12.421 7.61032 12.2803 7.46967C12.1397 7.32902 11.9489 7.25 11.75 7.25H4.25Z" fill="#F50A0A"/>
<path id="eVector_2" d="M16 8C16 10.1217 15.1571 12.1566 13.6569 13.6569C12.1566 15.1571 10.1217 16 8 16C5.87827 16 3.84344 15.1571 2.34315 13.6569C0.842855 12.1566 0 10.1217 0 8C0 5.87827 0.842855 3.84344 2.34315 2.34315C3.84344 0.842855 5.87827 0 8 0C10.1217 0 12.1566 0.842855 13.6569 2.34315C15.1571 3.84344 16 5.87827 16 8ZM14.5 8C14.5 6.27609 13.8152 4.62279 12.5962 3.40381C11.3772 2.18482 9.72391 1.5 8 1.5C6.27609 1.5 4.62279 2.18482 3.40381 3.40381C2.18482 4.62279 1.5 6.27609 1.5 8C1.5 9.72391 2.18482 11.3772 3.40381 12.5962C4.62279 13.8152 6.27609 14.5 8 14.5C9.72391 14.5 11.3772 13.8152 12.5962 12.5962C13.8152 11.3772 14.5 9.72391 14.5 8Z" fill="#F50A0A"/>
</g>
<defs>
<clipPath id="eclip0_216_28112">
<rect width="16" height="16" fill="white"/>
</clipPath>
</defs>
</symbol><symbol viewBox="0 0 16 16" fill="none" id="ph_eye-duotone" xmlns="http://www.w3.org/2000/svg">
<path d="M8 3.5C3 3.5 1 8 1 8C1 8 3 12.5 8 12.5C13 12.5 15 8 15 8C15 8 13 3.5 8 3.5ZM8 10.5C7.50555 10.5 7.0222 10.3534 6.61107 10.0787C6.19995 9.80397 5.87952 9.41352 5.6903 8.95671C5.50108 8.49989 5.45157 7.99723 5.54804 7.51227C5.6445 7.02732 5.8826 6.58186 6.23223 6.23223C6.58186 5.8826 7.02732 5.6445 7.51227 5.54804C7.99723 5.45157 8.49989 5.50108 8.95671 5.6903C9.41352 5.87952 9.80397 6.19995 10.0787 6.61107C10.3534 7.0222 10.5 7.50555 10.5 8C10.5 8.66304 10.2366 9.29893 9.76777 9.76777C9.29893 10.2366 8.66304 10.5 8 10.5Z" fill="#BEC3D4"/>
<path d="M15.4569 7.7975C15.435 7.74813 14.9056 6.57375 13.7287 5.39687C12.1606 3.82875 10.18 3 7.99999 3C5.81999 3 3.83937 3.82875 2.27124 5.39687C1.09437 6.57375 0.562494 7.75 0.543119 7.7975C0.51469 7.86144 0.5 7.93064 0.5 8.00062C0.5 8.0706 0.51469 8.1398 0.543119 8.20375C0.564994 8.25312 1.09437 9.42688 2.27124 10.6038C3.83937 12.1713 5.81999 13 7.99999 13C10.18 13 12.1606 12.1713 13.7287 10.6038C14.9056 9.42688 15.435 8.25312 15.4569 8.20375C15.4853 8.1398 15.5 8.0706 15.5 8.00062C15.5 7.93064 15.4853 7.86144 15.4569 7.7975ZM7.99999 12C6.07624 12 4.39562 11.3006 3.00437 9.92188C2.43352 9.35418 1.94786 8.70685 1.56249 8C1.94776 7.29309 2.43343 6.64574 3.00437 6.07812C4.39562 4.69938 6.07624 4 7.99999 4C9.92374 4 11.6044 4.69938 12.9956 6.07812C13.5676 6.6456 14.0543 7.29295 14.4406 8C13.99 8.84125 12.0269 12 7.99999 12ZM7.99999 5C7.40665 5 6.82663 5.17595 6.33328 5.50559C5.83994 5.83524 5.45542 6.30377 5.22836 6.85195C5.00129 7.40013 4.94188 8.00333 5.05764 8.58527C5.17339 9.16721 5.45912 9.70176 5.87867 10.1213C6.29823 10.5409 6.83278 10.8266 7.41472 10.9424C7.99667 11.0581 8.59987 10.9987 9.14804 10.7716C9.69622 10.5446 10.1648 10.1601 10.4944 9.66671C10.824 9.17336 11 8.59334 11 8C10.9992 7.2046 10.6828 6.44202 10.1204 5.87959C9.55797 5.31716 8.79539 5.00083 7.99999 5ZM7.99999 10C7.60443 10 7.21775 9.8827 6.88885 9.66294C6.55996 9.44318 6.30361 9.13082 6.15224 8.76537C6.00086 8.39991 5.96125 7.99778 6.03842 7.60982C6.11559 7.22186 6.30608 6.86549 6.58578 6.58579C6.86549 6.30608 7.22185 6.1156 7.60981 6.03843C7.99778 5.96126 8.39991 6.00087 8.76536 6.15224C9.13081 6.30362 9.44317 6.55996 9.66293 6.88886C9.8827 7.21776 9.99999 7.60444 9.99999 8C9.99999 8.53043 9.78928 9.03914 9.41421 9.41421C9.03913 9.78929 8.53043 10 7.99999 10Z" fill="#747B98"/>
</symbol><symbol viewBox="0 0 16 16" fill="none" id="ph_eye-slash-duotone" xmlns="http://www.w3.org/2000/svg">
<path d="M8 3.5C3 3.5 1 8 1 8C1 8 3 12.5 8 12.5C13 12.5 15 8 15 8C15 8 13 3.5 8 3.5ZM8 10.5C7.50555 10.5 7.0222 10.3534 6.61107 10.0787C6.19995 9.80397 5.87952 9.41352 5.6903 8.95671C5.50108 8.49989 5.45157 7.99723 5.54804 7.51227C5.6445 7.02732 5.8826 6.58186 6.23223 6.23223C6.58186 5.8826 7.02732 5.6445 7.51227 5.54804C7.99723 5.45157 8.49989 5.50108 8.95671 5.6903C9.41352 5.87952 9.80397 6.19995 10.0787 6.61107C10.3534 7.0222 10.5 7.50555 10.5 8C10.5 8.66304 10.2366 9.29893 9.76777 9.76777C9.29893 10.2366 8.66304 10.5 8 10.5Z" fill="#BEC3D4"/>
<path d="M3.36999 2.16379C3.32608 2.1143 3.27279 2.07401 3.21319 2.04526C3.1536 2.01651 3.08889 1.99988 3.02282 1.99633C2.95675 1.99277 2.89063 2.00237 2.8283 2.02455C2.76597 2.04674 2.70865 2.08108 2.65969 2.12558C2.61072 2.17008 2.57108 2.22385 2.54305 2.28379C2.51502 2.34372 2.49916 2.40863 2.4964 2.47473C2.49364 2.54084 2.50402 2.60684 2.52696 2.6689C2.54989 2.73097 2.58491 2.78786 2.62999 2.83629L3.83249 4.15942C1.56249 5.55254 0.586244 7.70004 0.543119 7.79754C0.51469 7.86149 0.5 7.93069 0.5 8.00067C0.5 8.07065 0.51469 8.13985 0.543119 8.20379C0.564994 8.25317 1.09437 9.42692 2.27124 10.6038C3.83937 12.1713 5.81999 13 7.99999 13C9.12038 13.0064 10.2294 12.7758 11.2544 12.3232L12.6294 13.8363C12.6733 13.8858 12.7266 13.9261 12.7862 13.9548C12.8458 13.9836 12.9105 14.0002 12.9765 14.0038C13.0426 14.0073 13.1087 13.9977 13.1711 13.9755C13.2334 13.9533 13.2907 13.919 13.3397 13.8745C13.3886 13.83 13.4283 13.7762 13.4563 13.7163C13.4843 13.6564 13.5002 13.5915 13.503 13.5254C13.5057 13.4592 13.4953 13.3932 13.4724 13.3312C13.4495 13.2691 13.4145 13.2122 13.3694 13.1638L3.36999 2.16379ZM6.32812 6.90379L8.93249 9.76942C8.5403 9.97574 8.09069 10.046 7.65426 9.96907C7.21783 9.89217 6.81931 9.67249 6.52126 9.34455C6.22321 9.0166 6.04252 8.59895 6.00756 8.15718C5.9726 7.71541 6.08536 7.27453 6.32812 6.90379ZM7.99999 12C6.07624 12 4.39562 11.3007 3.00437 9.92192C2.43332 9.35441 1.94763 8.70704 1.56249 8.00004C1.85562 7.45067 2.79124 5.91317 4.52187 4.91379L5.64687 6.14817C5.21133 6.70598 4.98702 7.39981 5.01358 8.10702C5.04014 8.81423 5.31586 9.48929 5.79202 10.0129C6.26817 10.5364 6.91409 10.8748 7.61561 10.9682C8.31713 11.0616 9.02908 10.904 9.62562 10.5232L10.5462 11.5357C9.73374 11.8474 8.87023 12.0049 7.99999 12ZM8.37499 6.03567C8.24471 6.0108 8.12963 5.9352 8.05509 5.82549C7.98054 5.71578 7.95263 5.58095 7.97749 5.45067C8.00236 5.32038 8.07796 5.20531 8.18767 5.13076C8.29738 5.05621 8.43221 5.0283 8.56249 5.05317C9.19975 5.17671 9.77999 5.50295 10.2167 5.98322C10.6534 6.46349 10.9231 7.07207 10.9856 7.71817C10.998 7.85019 10.9574 7.98172 10.8727 8.08381C10.7881 8.1859 10.6664 8.25019 10.5344 8.26254C10.5188 8.26346 10.5031 8.26346 10.4875 8.26254C10.3625 8.26308 10.2419 8.21679 10.1493 8.13281C10.0568 8.04882 9.99905 7.93323 9.98749 7.80879C9.94541 7.37904 9.76575 6.97434 9.47522 6.65488C9.1847 6.33542 8.79883 6.11825 8.37499 6.03567ZM15.455 8.20379C15.4287 8.26254 14.7956 9.66442 13.37 10.9413C13.3213 10.9863 13.2641 11.0212 13.2018 11.0439C13.1395 11.0666 13.0732 11.0767 13.007 11.0735C12.9407 11.0704 12.8758 11.0541 12.8159 11.0256C12.756 10.9971 12.7023 10.957 12.6581 10.9076C12.6138 10.8582 12.5799 10.8004 12.5582 10.7377C12.5365 10.6751 12.5274 10.6087 12.5316 10.5425C12.5358 10.4763 12.5531 10.4116 12.5826 10.3522C12.612 10.2927 12.653 10.2397 12.7031 10.1963C13.4025 9.56793 13.9901 8.82527 14.4406 8.00004C14.0546 7.2924 13.5679 6.64459 12.9956 6.07692C11.6044 4.69942 9.92374 4.00004 7.99999 4.00004C7.59465 3.99955 7.18996 4.03237 6.78999 4.09817C6.72495 4.10967 6.65828 4.10817 6.59382 4.09376C6.52936 4.07934 6.46839 4.0523 6.41444 4.01419C6.3605 3.97609 6.31463 3.92767 6.2795 3.87173C6.24437 3.8158 6.22067 3.75346 6.20978 3.68831C6.19888 3.62316 6.20099 3.55651 6.216 3.49218C6.23101 3.42786 6.25862 3.36715 6.29723 3.31356C6.33583 3.25996 6.38468 3.21455 6.44094 3.17994C6.49719 3.14533 6.55975 3.12221 6.62499 3.11192C7.07947 3.03688 7.53936 2.99946 7.99999 3.00004C10.18 3.00004 12.1606 3.82879 13.7287 5.39692C14.9056 6.57379 15.435 7.74817 15.4569 7.79754C15.4853 7.86149 15.5 7.93069 15.5 8.00067C15.5 8.07065 15.4853 8.13985 15.4569 8.20379H15.455Z" fill="#747B98"/>
</symbol><symbol viewBox="0 0 24 24" fill="none" id="plus" xmlns="http://www.w3.org/2000/svg">
<g id="hplus">
<path id="hVector" d="M18 12.998H13V17.998C13 18.2633 12.8946 18.5176 12.7071 18.7052C12.5196 18.8927 12.2652 18.998 12 18.998C11.7348 18.998 11.4804 18.8927 11.2929 18.7052C11.1054 18.5176 11 18.2633 11 17.998V12.998H6C5.73478 12.998 5.48043 12.8927 5.29289 12.7052C5.10536 12.5176 5 12.2633 5 11.998C5 11.7328 5.10536 11.4785 5.29289 11.2909C5.48043 11.1034 5.73478 10.998 6 10.998H11V5.99805C11 5.73283 11.1054 5.47848 11.2929 5.29094C11.4804 5.1034 11.7348 4.99805 12 4.99805C12.2652 4.99805 12.5196 5.1034 12.7071 5.29094C12.8946 5.47848 13 5.73283 13 5.99805V10.998H18C18.2652 10.998 18.5196 11.1034 18.7071 11.2909C18.8946 11.4785 19 11.7328 19 11.998C19 12.2633 18.8946 12.5176 18.7071 12.7052C18.5196 12.8927 18.2652 12.998 18 12.998Z" fill="black"/>
</g>
</symbol><symbol viewBox="0 0 20 20" fill="none" id="remove" xmlns="http://www.w3.org/2000/svg">
<g id="iremove">
<path id="iVector" d="M3.33398 5.83333H16.6673M8.33398 9.16667V14.1667M11.6673 9.16667V14.1667M4.16732 5.83333L5.00065 15.8333C5.00065 16.2754 5.17625 16.6993 5.48881 17.0118C5.80137 17.3244 6.22529 17.5 6.66732 17.5H13.334C13.776 17.5 14.1999 17.3244 14.5125 17.0118C14.8251 16.6993 15.0007 16.2754 15.0007 15.8333L15.834 5.83333M7.50065 5.83333V3.33333C7.50065 3.11232 7.58845 2.90036 7.74473 2.74408C7.90101 2.5878 8.11297 2.5 8.33398 2.5H11.6673C11.8883 2.5 12.1003 2.5878 12.2566 2.74408C12.4129 2.90036 12.5007 3.11232 12.5007 3.33333V5.83333" stroke="black" stroke-width="1.33333" stroke-linecap="round" stroke-linejoin="round"/>
</g>
</symbol><symbol viewBox="0 0 16 16" fill="none" id="report" xmlns="http://www.w3.org/2000/svg">
<path d="M2 6.66634C2 4.15234 2 2.89501 2.78133 2.11434C3.562 1.33301 4.81933 1.33301 7.33333 1.33301H8.66667C11.1807 1.33301 12.438 1.33301 13.2187 2.11434C14 2.89501 14 4.15234 14 6.66634V9.33301C14 11.847 14 13.1043 13.2187 13.885C12.438 14.6663 11.1807 14.6663 8.66667 14.6663H7.33333C4.81933 14.6663 3.562 14.6663 2.78133 13.885C2 13.1043 2 11.847 2 9.33301V6.66634Z" fill="#CACFE0"/>
<path d="M11.0126 11.0001C11.1293 10.9095 11.2353 10.8035 11.4466 10.5921L14.0846 7.95347C14.1486 7.89014 14.1193 7.78014 14.0346 7.75014C13.6218 7.60627 13.247 7.37057 12.9386 7.0608C12.6288 6.75235 12.3931 6.3776 12.2493 5.9648C12.2193 5.88014 12.1093 5.8508 12.0459 5.9148L9.40659 8.5528C9.19526 8.76414 9.08926 8.87014 8.99859 8.9868C8.89126 9.1248 8.79859 9.27347 8.72392 9.43081C8.66059 9.56414 8.61326 9.70681 8.51859 9.99081L8.39592 10.3575L8.20126 10.9408L8.01926 11.4875C7.99656 11.556 7.99336 11.6295 8.01001 11.6997C8.02666 11.7699 8.06251 11.8341 8.11354 11.8852C8.16458 11.9362 8.2288 11.9721 8.29903 11.9887C8.36926 12.0054 8.44274 12.0022 8.51126 11.9795L9.05792 11.7975L9.64126 11.6028L10.0079 11.4801C10.2919 11.3855 10.4346 11.3388 10.5679 11.2748C10.7253 11.1995 10.8753 11.1081 11.0126 11.0001ZM14.9106 7.12747C15.0483 6.99446 15.1581 6.83536 15.2336 6.65946C15.3092 6.48356 15.3489 6.29438 15.3506 6.10296C15.3522 5.91153 15.3158 5.72169 15.2433 5.54451C15.1708 5.36732 15.0638 5.20634 14.9284 5.07096C14.7931 4.93557 14.6322 4.82849 14.455 4.75595C14.2778 4.68342 14.088 4.64689 13.8966 4.64849C13.7052 4.65009 13.516 4.68979 13.34 4.76527C13.1641 4.84075 13.005 4.95051 12.8719 5.08814L12.7873 5.17347C12.7469 5.21326 12.7168 5.26228 12.6996 5.31628C12.6824 5.37029 12.6787 5.42767 12.6886 5.48347C12.7019 5.5548 12.7253 5.66014 12.7686 5.78481C12.8553 6.03481 13.0193 6.36281 13.3279 6.67147C13.5772 6.92276 13.8804 7.11403 14.2146 7.2308C14.3399 7.27414 14.4446 7.29747 14.5159 7.3108C14.5717 7.32068 14.6291 7.31686 14.6831 7.29968C14.7371 7.28249 14.7861 7.25245 14.8259 7.21214L14.9106 7.12747Z" fill="#747B98"/>
<path fill-rule="evenodd" clip-rule="evenodd" d="M4.8335 6C4.8335 5.86739 4.88617 5.74022 4.97994 5.64645C5.07371 5.55268 5.20089 5.5 5.3335 5.5H9.66683C9.79944 5.5 9.92661 5.55268 10.0204 5.64645C10.1142 5.74022 10.1668 5.86739 10.1668 6C10.1668 6.13261 10.1142 6.25978 10.0204 6.35355C9.92661 6.44732 9.79944 6.5 9.66683 6.5H5.3335C5.20089 6.5 5.07371 6.44732 4.97994 6.35355C4.88617 6.25978 4.8335 6.13261 4.8335 6ZM4.8335 8.66667C4.8335 8.53406 4.88617 8.40688 4.97994 8.31311C5.07371 8.21935 5.20089 8.16667 5.3335 8.16667H7.3335C7.4661 8.16667 7.59328 8.21935 7.68705 8.31311C7.78082 8.40688 7.8335 8.53406 7.8335 8.66667C7.8335 8.79928 7.78082 8.92645 7.68705 9.02022C7.59328 9.11399 7.4661 9.16667 7.3335 9.16667H5.3335C5.20089 9.16667 5.07371 9.11399 4.97994 9.02022C4.88617 8.92645 4.8335 8.79928 4.8335 8.66667ZM4.8335 11.3333C4.8335 11.2007 4.88617 11.0735 4.97994 10.9798C5.07371 10.886 5.20089 10.8333 5.3335 10.8333H6.3335C6.4661 10.8333 6.59328 10.886 6.68705 10.9798C6.78082 11.0735 6.8335 11.2007 6.8335 11.3333C6.8335 11.4659 6.78082 11.5931 6.68705 11.6869C6.59328 11.7807 6.4661 11.8333 6.3335 11.8333H5.3335C5.20089 11.8333 5.07371 11.7807 4.97994 11.6869C4.88617 11.5931 4.8335 11.4659 4.8335 11.3333Z" fill="#747B98"/>
</symbol><symbol viewBox="0 0 16 16" fill="none" id="tabler_check" xmlns="http://www.w3.org/2000/svg">
<g id="ktabler:check">
<path id="kVector" d="M2.6665 8L6.22206 12L13.3332 4" stroke="#07AD63" stroke-width="2" stroke-linecap="round" stroke-linejoin="round"/>
</g>
</symbol><symbol viewBox="0 0 12 12" fill="none" id="waiting" xmlns="http://www.w3.org/2000/svg">
<rect width="12" height="12" fill="#E8E8E8"/>
<g id="lTag">
<g id="lType=Waiting">
<rect x="-5.5" y="-6.5" width="76" height="25" rx="7.5" fill="#FEF6E7"/>
<g id="lmaki:cross">
<path id="lVector" d="M2.33333 11C2.24493 11 2.16014 10.9624 2.09763 10.8954C2.03512 10.8284 2 10.7376 2 10.6429C2 10.5481 2.03512 10.4573 2.09763 10.3903C2.16014 10.3233 2.24493 10.2857 2.33333 10.2857H3V9.57143C2.99986 8.96498 3.15986 8.37086 3.4615 7.8577C3.76314 7.34454 4.19413 6.93328 4.70467 6.67143C4.898 6.57214 5 6.40214 5 6.25V5.75C5 5.59786 4.89733 5.42786 4.70467 5.32857C4.19413 5.06672 3.76314 4.65546 3.4615 4.1423C3.15986 3.62914 2.99986 3.03502 3 2.42857V1.71429H2.33333C2.24493 1.71429 2.16014 1.67666 2.09763 1.60968C2.03512 1.5427 2 1.45186 2 1.35714C2 1.26242 2.03512 1.17158 2.09763 1.1046C2.16014 1.03763 2.24493 1 2.33333 1H9.66667C9.75507 1 9.83986 1.03763 9.90237 1.1046C9.96488 1.17158 10 1.26242 10 1.35714C10 1.45186 9.96488 1.5427 9.90237 1.60968C9.83986 1.67666 9.75507 1.71429 9.66667 1.71429H9V2.42857C9.00014 3.03502 8.84014 3.62914 8.5385 4.1423C8.23686 4.65546 7.80587 5.06672 7.29533 5.32857C7.102 5.42786 7 5.59786 7 5.75V6.25C7 6.40214 7.10267 6.57214 7.29533 6.67143C7.80587 6.93328 8.23686 7.34454 8.5385 7.8577C8.84014 8.37086 9.00014 8.96498 9 9.57143V10.2857H9.66667C9.75507 10.2857 9.83986 10.3233 9.90237 10.3903C9.96488 10.4573 10 10.5481 10 10.6429C10 10.7376 9.96488 10.8284 9.90237 10.8954C9.83986 10.9624 9.75507 11 9.66667 11H2.33333ZM3.66667 1.71429V2.42857C3.66667 2.81214 3.74667 3.175 3.89133 3.5H8.10867C8.25267 3.175 8.33333 2.81214 8.33333 2.42857V1.71429H3.66667ZM5.66667 6.25C5.66667 6.75071 5.348 7.13286 4.99267 7.31571C4.59553 7.51937 4.26027 7.83925 4.02563 8.23841C3.79099 8.63756 3.66655 9.0997 3.66667 9.57143C3.66667 9.57143 4.244 8.64357 5.66667 8.51429V6.25ZM6.33333 6.25V8.51429C7.756 8.64357 8.33333 9.57143 8.33333 9.57143C8.33345 9.0997 8.20901 8.63756 7.97437 8.23841C7.73973 7.83925 7.40447 7.51937 7.00733 7.31571C6.652 7.13286 6.33333 6.75143 6.33333 6.25071V6.25Z" fill="#F6B127"/>
</g>
<rect x="-5.5" y="-6.5" width="76" height="25" rx="7.5" stroke="#F6B127"/>
</g>
<rect x="-37.5" y="-502.5" width="218" height="1077" rx="4.5" stroke="#9747FF" stroke-dasharray="10 5"/>
</g>
</symbol></svg>