<svg xmlns="http://www.w3.org/2000/svg" width="16" height="16" viewBox="0 0 16 16" fill="none">
  <path fill-rule="evenodd" clip-rule="evenodd" d="M6.47133 10.4713L11.6667 5.27601L12.862 6.47134C12.9552 6.56455 13.074 6.62802 13.2033 6.65373C13.3326 6.67944 13.4666 6.66624 13.5884 6.61579C13.7102 6.56534 13.8143 6.47992 13.8876 6.37031C13.9609 6.2607 14 6.13184 14 6.00001V2.66667L13.9993 2.63467C13.9918 2.46336 13.9182 2.30161 13.7941 2.18331C13.6699 2.06501 13.5048 1.99932 13.3333 2.00001H10C9.86817 2.00003 9.7393 2.03915 9.62969 2.1124C9.52009 2.18566 9.43466 2.28977 9.38421 2.41157C9.33377 2.53337 9.32057 2.66739 9.34628 2.79669C9.37199 2.926 9.43546 3.04477 9.52867 3.13801L10.724 4.33334L5.52867 9.52867C5.46499 9.59017 5.4142 9.66373 5.37927 9.74507C5.34433 9.82641 5.32594 9.91389 5.32517 10.0024C5.3244 10.0909 5.34127 10.1787 5.37479 10.2606C5.40831 10.3426 5.45781 10.417 5.5204 10.4796C5.583 10.5422 5.65743 10.5917 5.73936 10.6252C5.8213 10.6587 5.90908 10.6756 5.9976 10.6748C6.08612 10.6741 6.1736 10.6557 6.25494 10.6207C6.33627 10.5858 6.40984 10.535 6.47133 10.4713ZM2.66667 2.00001C2.48986 2.00001 2.32029 2.07024 2.19526 2.19527C2.07024 2.32029 2 2.48986 2 2.66667V12C2 12.5304 2.21071 13.0391 2.58579 13.4142C2.96086 13.7893 3.46957 14 4 14H12C12.5304 14 13.0391 13.7893 13.4142 13.4142C13.7893 13.0391 14 12.5304 14 12V8.66667C14 8.48986 13.9298 8.32029 13.8047 8.19527C13.6797 8.07024 13.5101 8.00001 13.3333 8.00001C13.1565 8.00001 12.987 8.07024 12.8619 8.19527C12.7369 8.32029 12.6667 8.48986 12.6667 8.66667V12C12.6667 12.1768 12.5964 12.3464 12.4714 12.4714C12.3464 12.5964 12.1768 12.6667 12 12.6667H4C3.82319 12.6667 3.65362 12.5964 3.5286 12.4714C3.40357 12.3464 3.33333 12.1768 3.33333 12V3.33334H7.33333C7.51014 3.33334 7.67971 3.2631 7.80474 3.13808C7.92976 3.01305 8 2.84348 8 2.66667C8 2.48986 7.92976 2.32029 7.80474 2.19527C7.67971 2.07024 7.51014 2.00001 7.33333 2.00001H2.66667Z" fill="#5D7DF9"/>
</svg>