<svg width="40" height="41" viewBox="0 0 40 41" fill="none" xmlns="http://www.w3.org/2000/svg">
<rect y="0.5" width="40" height="40" rx="12" fill="#F50A0A"/>
<path d="M30.2 26.1335L22.0016 11.8957C21.7967 11.5469 21.5042 11.2576 21.1531 11.0567C20.802 10.8557 20.4045 10.75 20 10.75C19.5955 10.75 19.198 10.8557 18.8469 11.0567C18.4958 11.2576 18.2033 11.5469 17.9984 11.8957L9.8 26.1335C9.60288 26.4709 9.49899 26.8546 9.49899 27.2454C9.49899 27.6361 9.60288 28.0199 9.8 28.3572C10.0022 28.7082 10.2942 28.999 10.646 29.1998C10.9977 29.4006 11.3965 29.5043 11.8016 29.5001H28.1984C28.6031 29.5039 29.0016 29.4001 29.353 29.1993C29.7044 28.9985 29.996 28.7079 30.1981 28.3572C30.3955 28.02 30.4997 27.6364 30.5001 27.2456C30.5004 26.8549 30.3968 26.4711 30.2 26.1335ZM19.25 18.2501C19.25 18.0511 19.329 17.8604 19.4697 17.7197C19.6103 17.5791 19.8011 17.5001 20 17.5001C20.1989 17.5001 20.3897 17.5791 20.5303 17.7197C20.671 17.8604 20.75 18.0511 20.75 18.2501V22.0001C20.75 22.199 20.671 22.3897 20.5303 22.5304C20.3897 22.671 20.1989 22.7501 20 22.7501C19.8011 22.7501 19.6103 22.671 19.4697 22.5304C19.329 22.3897 19.25 22.199 19.25 22.0001V18.2501ZM20 26.5001C19.7775 26.5001 19.56 26.4341 19.375 26.3105C19.19 26.1868 19.0458 26.0111 18.9606 25.8056C18.8755 25.6 18.8532 25.3738 18.8966 25.1556C18.94 24.9374 19.0472 24.7369 19.2045 24.5796C19.3618 24.4222 19.5623 24.3151 19.7805 24.2717C19.9988 24.2283 20.2249 24.2505 20.4305 24.3357C20.6361 24.4208 20.8118 24.565 20.9354 24.75C21.059 24.9351 21.125 25.1526 21.125 25.3751C21.125 25.6734 21.0065 25.9596 20.7955 26.1706C20.5845 26.3815 20.2984 26.5001 20 26.5001Z" fill="white"/>
</svg>
