<svg width="40" height="41" viewBox="0 0 40 41" fill="none" xmlns="http://www.w3.org/2000/svg">
<rect y="0.5" width="40" height="40" rx="12" fill="#355CF7"/>
<path d="M20 11.5C18.8181 11.5 17.6478 11.7328 16.5558 12.1851C15.4639 12.6374 14.4718 13.3003 13.636 14.136C12.8003 14.9718 12.1374 15.9639 11.6851 17.0558C11.2328 18.1478 11 19.3181 11 20.5C11 21.6819 11.2328 22.8522 11.6851 23.9442C12.1374 25.0361 12.8003 26.0282 13.636 26.864C14.4718 27.6997 15.4639 28.3626 16.5558 28.8149C17.6478 29.2672 18.8181 29.5 20 29.5C22.3869 29.5 24.6761 28.5518 26.364 26.864C28.0518 25.1761 29 22.8869 29 20.5C29 18.1131 28.0518 15.8239 26.364 14.136C24.6761 12.4482 22.3869 11.5 20 11.5ZM21.125 16.75C21.125 17.0482 21.0066 17.3341 20.7957 17.545C20.5849 17.7558 20.2989 17.8742 20.0007 17.8742C19.7026 17.8742 19.4166 17.7558 19.2058 17.545C18.9949 17.3341 18.8765 17.0482 18.8765 16.75C18.8765 16.452 18.9949 16.1663 19.2056 15.9556C19.4163 15.7449 19.702 15.6265 20 15.6265C20.298 15.6265 20.5837 15.7449 20.7944 15.9556C21.0051 16.1663 21.1235 16.452 21.1235 16.75H21.125ZM20 19C20.1989 19 20.3897 19.079 20.5303 19.2197C20.671 19.3603 20.75 19.5511 20.75 19.75V24.25C20.75 24.4489 20.671 24.6397 20.5303 24.7803C20.3897 24.921 20.1989 25 20 25C19.8011 25 19.6103 24.921 19.4697 24.7803C19.329 24.6397 19.25 24.4489 19.25 24.25V19.75C19.25 19.5511 19.329 19.3603 19.4697 19.2197C19.6103 19.079 19.8011 19 20 19Z" fill="white"/>
</svg>
