<svg width="40" height="41" viewBox="0 0 40 41" fill="none" xmlns="http://www.w3.org/2000/svg">
<rect y="0.5" width="40" height="40" rx="12" fill="#07AD63"/>
<path d="M20 10C22.7848 10 25.4555 11.1062 27.4246 13.0754C29.3938 15.0445 30.5 17.7152 30.5 20.5C30.5 23.2848 29.3938 25.9555 27.4246 27.9246C25.4555 29.8938 22.7848 31 20 31C17.2152 31 14.5445 29.8938 12.5754 27.9246C10.6062 25.9555 9.5 23.2848 9.5 20.5C9.5 17.7152 10.6062 15.0445 12.5754 13.0754C14.5445 11.1062 17.2152 10 20 10ZM18.692 22.5715L16.3595 20.2375C16.2759 20.1539 16.1766 20.0876 16.0674 20.0423C15.9581 19.997 15.841 19.9737 15.7227 19.9737C15.6045 19.9737 15.4874 19.997 15.3781 20.0423C15.2689 20.0876 15.1696 20.1539 15.086 20.2375C14.9171 20.4064 14.8222 20.6354 14.8222 20.8743C14.8222 21.1131 14.9171 21.3421 15.086 21.511L18.056 24.481C18.1394 24.565 18.2386 24.6317 18.3479 24.6773C18.4571 24.7228 18.5744 24.7462 18.6927 24.7462C18.8111 24.7462 18.9284 24.7228 19.0376 24.6773C19.1469 24.6317 19.2461 24.565 19.3295 24.481L25.4795 18.3295C25.5642 18.2462 25.6316 18.147 25.6778 18.0375C25.724 17.9281 25.7481 17.8106 25.7487 17.6918C25.7492 17.573 25.7262 17.4552 25.6811 17.3453C25.6359 17.2355 25.5694 17.1356 25.4854 17.0516C25.4015 16.9675 25.3017 16.9009 25.1919 16.8556C25.0821 16.8103 24.9644 16.7872 24.8455 16.7876C24.7267 16.788 24.6092 16.8119 24.4997 16.858C24.3902 16.9041 24.2909 16.9714 24.2075 17.056L18.692 22.5715Z" fill="white"/>
</svg>
