<svg width="40" height="41" viewBox="0 0 40 41" fill="none" xmlns="http://www.w3.org/2000/svg">
<rect y="0.5" width="40" height="40" rx="12" fill="#F6B127"/>
<path fill-rule="evenodd" clip-rule="evenodd" d="M29.6004 20.4999C29.6004 23.046 28.589 25.4878 26.7886 27.2881C24.9883 29.0885 22.5465 30.0999 20.0004 30.0999C17.4543 30.0999 15.0125 29.0885 13.2122 27.2881C11.4118 25.4878 10.4004 23.046 10.4004 20.4999C10.4004 17.9538 11.4118 15.512 13.2122 13.7117C15.0125 11.9113 17.4543 10.8999 20.0004 10.8999C22.5465 10.8999 24.9883 11.9113 26.7886 13.7117C28.589 15.512 29.6004 17.9538 29.6004 20.4999ZM20.0004 14.4999C20.2391 14.4999 20.468 14.5947 20.6368 14.7635C20.8056 14.9323 20.9004 15.1612 20.9004 15.3999V20.7999C20.9004 21.0386 20.8056 21.2675 20.6368 21.4363C20.468 21.6051 20.2391 21.6999 20.0004 21.6999C19.7617 21.6999 19.5328 21.6051 19.364 21.4363C19.1952 21.2675 19.1004 21.0386 19.1004 20.7999V15.3999C19.1004 15.1612 19.1952 14.9323 19.364 14.7635C19.5328 14.5947 19.7617 14.4999 20.0004 14.4999ZM20.0004 26.4999C20.3187 26.4999 20.6239 26.3735 20.8489 26.1484C21.074 25.9234 21.2004 25.6182 21.2004 25.2999C21.2004 24.9816 21.074 24.6764 20.8489 24.4514C20.6239 24.2263 20.3187 24.0999 20.0004 24.0999C19.6821 24.0999 19.3769 24.2263 19.1519 24.4514C18.9268 24.6764 18.8004 24.9816 18.8004 25.2999C18.8004 25.6182 18.9268 25.9234 19.1519 26.1484C19.3769 26.3735 19.6821 26.4999 20.0004 26.4999Z" fill="white"/>
</svg>
